<?xml version="1.0" encoding="UTF-8" standalone="no"?>
<!-- Created with Inkscape (http://www.inkscape.org/) -->

<svg
   xmlns:osb="http://www.openswatchbook.org/uri/2009/osb"
   xmlns:dc="http://purl.org/dc/elements/1.1/"
   xmlns:cc="http://creativecommons.org/ns#"
   xmlns:rdf="http://www.w3.org/1999/02/22-rdf-syntax-ns#"
   xmlns:svg="http://www.w3.org/2000/svg"
   xmlns="http://www.w3.org/2000/svg"
   xmlns:sodipodi="http://sodipodi.sourceforge.net/DTD/sodipodi-0.dtd"
   xmlns:inkscape="http://www.inkscape.org/namespaces/inkscape"
   width="250"
   height="100"
   id="svg3074"
   version="1.1"
   inkscape:version="0.48.4 r9939"
   sodipodi:docname="dw2.svg">
  <defs
     id="defs3076">
    <linearGradient
       id="linearGradient3922"
       osb:paint="gradient">
      <stop
         style="stop-color:#c00000;stop-opacity:1;"
         offset="0"
         id="stop3924" />
      <stop
         style="stop-color:#c00000;stop-opacity:0;"
         offset="1"
         id="stop3926" />
    </linearGradient>
  </defs>
  <sodipodi:namedview
     id="base"
     pagecolor="#ffffff"
     bordercolor="#666666"
     borderopacity="1.0"
     inkscape:pageopacity="0.0"
     inkscape:pageshadow="2"
     inkscape:zoom="2.4067355"
     inkscape:cx="178.3352"
     inkscape:cy="48.244215"
     inkscape:document-units="px"
     inkscape:current-layer="layer1"
     showgrid="false"
     inkscape:window-width="1366"
     inkscape:window-height="721"
     inkscape:window-x="-2"
     inkscape:window-y="-3"
     inkscape:window-maximized="1" />
  <metadata
     id="metadata3079">
    <rdf:RDF>
      <cc:Work
         rdf:about="">
        <dc:format>image/svg+xml</dc:format>
        <dc:type
           rdf:resource="http://purl.org/dc/dcmitype/StillImage" />
        <dc:title />
      </cc:Work>
    </rdf:RDF>
  </metadata>
  <g
     inkscape:label="Layer 1"
     inkscape:groupmode="layer"
     id="layer1"
     transform="translate(0,-952.3622)">
    <text
       xml:space="preserve"
       style="font-size:40px;font-style:normal;font-weight:normal;line-height:125%;letter-spacing:0px;word-spacing:0px;fill:#000000;fill-opacity:1;stroke:none;font-family:Sans"
       x="424.61209"
       y="351.06738"
       id="text3102"
       sodipodi:linespacing="125%"><tspan
         sodipodi:role="line"
         id="tspan3104"
         x="424.61209"
         y="351.06738" /></text>
    <g
       id="g6031"
       transform="matrix(0.59591421,0,0,0.57218061,10.712597,439.51248)">
      <text
         sodipodi:linespacing="125%"
         id="text3082"
         y="1050.5168"
         x="0.89556122"
         style="font-size:40px;font-style:normal;font-weight:normal;line-height:125%;letter-spacing:0px;word-spacing:0px;fill:#ff0000;fill-opacity:1;stroke:#000000;stroke-opacity:1;font-family:Sans"
         xml:space="preserve"><tspan
           style="font-weight:bold;stroke:#000000;stroke-opacity:1;-inkscape-font-specification:Magneto Bold Italic"
           y="1050.5168"
           x="0.89556122"
           id="tspan3084"
           sodipodi:role="line"><tspan
             id="tspan3088"
             style="font-style:italic;font-variant:normal;font-weight:bold;font-stretch:normal;fill:#ff0000;stroke:#000000;stroke-opacity:1;font-family:Magneto;-inkscape-font-specification:Magneto Bold Italic">D</tspan><tspan
             style="font-style:italic;font-variant:normal;font-weight:bold;font-stretch:normal;fill:#ff0000;stroke:#000000;stroke-opacity:1;font-family:Splash;-inkscape-font-specification:Magneto Bold Italic"
             id="tspan3094">IGIT </tspan></tspan></text>
      <text
         sodipodi:linespacing="125%"
         id="text3098"
         y="1049.9496"
         x="119.047"
         style="font-size:40px;font-style:normal;font-weight:normal;line-height:125%;letter-spacing:0px;word-spacing:0px;fill:#ff0000;fill-opacity:1;stroke:#000000;stroke-opacity:1;font-family:Sans"
         xml:space="preserve"><tspan
           style="font-size:40px;font-style:normal;font-variant:normal;font-weight:bold;font-stretch:normal;text-align:start;line-height:125%;writing-mode:lr-tb;text-anchor:start;fill:#ff0000;fill-opacity:1;stroke:#000000;stroke-opacity:1;font-family:Splash;-inkscape-font-specification:Splash Bold"
           y="1049.9496"
           x="119.047"
           id="tspan3100"
           sodipodi:role="line">AL WORL<tspan
   id="tspan3144"
   style="font-style:italic;font-variant:normal;font-weight:bold;font-stretch:normal;fill:#ff0000;fill-opacity:1;stroke:#000000;stroke-opacity:1;font-family:Magneto;-inkscape-font-specification:Magneto Bold Italic">D </tspan></tspan></text>
      <g
         id="g5889"
         transform="matrix(0.12391365,0,0,0.12223598,128.87298,879.42399)">
        <path
           sodipodi:type="arc"
           style="fill:none;stroke:#db0000;stroke-width:6.70007706;stroke-linecap:butt;stroke-linejoin:miter;stroke-miterlimit:4;stroke-opacity:1;stroke-dasharray:none;stroke-dashoffset:0"
           id="path2987"
           sodipodi:cx="150"
           sodipodi:cy="120.93361"
           sodipodi:rx="68.571426"
           sodipodi:ry="60"
           d="m 218.57143,120.93361 c 0,33.13708 -30.70048,60 -68.57143,60 -37.87095,0 -68.571426,-26.86292 -68.571426,-60 0,-33.137086 30.700476,-60.000001 68.571426,-60.000001 37.87095,0 68.57143,26.862915 68.57143,60.000001 z"
           transform="matrix(4.8952932,0,0,5.0833801,-328.29438,107.22377)" />
        <path
           style="fill:none"
           id="path3035"
           d="m 17.704914,761.1994 c 1.371696,1.33896 2.998345,2.36399 4.448792,3.60712 0.21838,0.18717 1.301747,1.28082 1.679723,1.44003 0.293533,0.12364 0.630727,0.0893 0.94609,0.13394 0.902232,0.49687 1.728005,1.23843 2.71359,1.58575 1.065422,0.37546 0.744914,-0.0408 1.857926,0.38508 0.221391,0.0847 0.396021,0.26062 0.594032,0.39093 0.156406,0.0766 0.317694,0.14404 0.46922,0.22993 0.38879,0.22038 0.515614,0.39796 0.944978,0.49139 0.427955,0.0931 0.61087,-0.0881 1.082286,-0.0459 0.200261,0.018 0.384965,0.11622 0.577447,0.17433 0.877426,1.00673 2.346142,1.55488 3.66757,1.27809 0.501944,-0.54269 0.80272,0.63719 1.229798,0.48796 0.05711,-0.0199 0.0032,-0.12429 0.02849,-0.17923 0.07533,-0.16335 0.179797,-0.31162 0.269695,-0.46742 0.0845,-0.63778 0.478902,-1.16751 0.60811,-1.79166 0.108788,-0.52551 -0.113348,-0.38852 0.241786,-0.92962 0.12525,-0.19084 0.305421,-0.33934 0.458132,-0.509 0.854439,-0.59897 -0.139007,-1.62718 0.384437,-2.32779 0.136146,-0.18223 0.379436,-0.251 0.569154,-0.3765 0.734827,-0.47043 0.142737,0.0275 0.408617,-0.47416 0.06016,-0.11352 0.17187,-0.19296 0.238367,-0.30289 0.04426,-0.0732 0.03499,-0.17481 0.09013,-0.24016 0.965662,-1.1447 -0.04289,0.30018 0.500791,-0.50313 -0.0052,-1.59234 0.365709,-2.15799 1.498447,-3.27023 1.030974,-1.034 1.11318,-2.47637 1.622069,-3.76941 0.473667,-1.88498 1.165239,-3.73054 1.989073,-5.49331 0.388036,-0.77794 0.87022,-1.58916 1.078917,-2.44846 0.05971,-0.24583 0.04269,-0.50566 0.09736,-0.75266 0.09647,-0.43591 0.26799,-0.85175 0.40156,-1.27775 0.194171,-0.90417 -0.167751,-1.81768 -0.07949,-2.72194 0.08773,-0.89884 0.328063,-1.1656 0.741739,-1.9598 0.815677,-1.30257 0.271062,-1.37438 0.173244,-2.70898 0.01841,-0.71482 -0.09624,-0.39224 0.355907,-0.9634 0,0 0.338231,0.34192 0.338231,0.34192 l 0,0 c -0.343227,0.17834 -0.19744,0.0288 -0.2143,0.58879 0.07747,1.24726 0.640525,1.74113 -0.227976,2.96661 -0.348668,0.64755 -0.612142,0.97212 -0.686371,1.71345 -0.09583,0.95701 0.305415,1.93148 0.05793,2.88724 -0.125568,0.40046 -0.292666,0.78945 -0.383973,1.19909 -0.06253,0.28054 -0.05435,0.57431 -0.122513,0.85355 -0.213034,0.87268 -0.699257,1.69516 -1.094634,2.48614 -0.821517,1.7542 -1.504334,3.59138 -1.977795,5.46723 -0.543077,1.3503 -0.617633,2.86914 -1.733466,3.93628 -0.604808,0.58347 -0.929956,0.87024 -1.200238,1.63887 -0.05499,0.15636 -0.142092,0.30532 -0.163103,0.46974 -0.286102,2.23881 0.370828,-0.98108 -0.08627,1.10614 -0.08711,0.10858 -0.158259,0.23218 -0.261342,0.32574 -0.04837,0.0439 -0.140331,0.0243 -0.180804,0.0755 -0.333172,0.42201 -0.373114,1.04696 -0.955288,1.25513 -0.112519,0.0343 -0.251887,0.0224 -0.337559,0.10296 -0.09498,0.0894 -0.147141,0.22942 -0.154064,0.35965 -0.0093,0.17572 0.08326,0.34254 0.107473,0.51683 0.08888,0.63976 -0.0051,1.13188 -0.443165,1.62837 -0.559178,0.56757 -0.43637,0.51949 -0.592645,1.25555 -0.140402,0.6613 -0.552371,1.22332 -0.656146,1.89691 -0.212011,0.33197 -0.383529,0.82165 -0.881833,0.84442 -0.1698,0.008 -0.323684,-0.1152 -0.464505,-0.21039 -0.0889,-0.0601 -0.176377,-0.14263 -0.208972,-0.24486 -0.01456,-0.0457 0.144984,-0.1046 0.09707,-0.10614 -0.133126,-0.004 -0.258458,0.0645 -0.387688,0.0968 -1.346002,0.24876 -3.068257,-0.16502 -3.914326,-1.29457 -0.696295,-0.27492 -1.017583,0.0239 -1.681558,-0.13644 -0.495276,-0.11963 -0.553594,-0.26426 -0.982581,-0.50809 -0.171921,-0.0977 -0.353503,-0.17737 -0.530254,-0.26605 -0.899002,-0.67448 -1.408303,-0.39138 -2.395122,-0.74199 -0.938364,-0.33341 -1.753098,-1.00746 -2.576864,-1.54043 -0.386023,-0.0756 -0.796788,-0.0712 -1.158068,-0.22677 -0.396746,-0.17085 -1.424235,-1.22049 -1.68693,-1.44568 -1.450305,-1.24323 -3.076658,-2.26879 -4.448791,-3.60712 0,0 0.300447,-0.37556 0.300447,-0.37556 z"
           inkscape:connector-curvature="0" />
        <text
           xml:space="preserve"
           style="font-size:542.16259766px;font-style:normal;font-weight:normal;line-height:125%;letter-spacing:0px;word-spacing:0px;fill:#f20000;fill-opacity:1;stroke:none;font-family:Sans"
           x="127.26645"
           y="912.117"
           id="text3029"
           sodipodi:linespacing="125%"
           transform="scale(1.020358,0.98004818)"><tspan
             sodipodi:role="line"
             id="tspan3031"
             x="127.26645"
             y="912.117"
             style="font-style:italic;font-variant:normal;font-weight:bold;font-stretch:normal;fill:#f20000;fill-opacity:1;font-family:Magneto;-inkscape-font-specification:Magneto Bold Italic">D</tspan></text>
      </g>
    </g>
  </g>
</svg>
